<svg xmlns="http://www.w3.org/2000/svg" width="57" height="60" fill="none">
  <g clip-path="url(#clip0)" filter="url(#filter0_d)">
    <path fill="#325AB4" d="M24.4905 7.30435c-1.4676-.85104-3.1336-1.30013-4.8301-1.30202-1.6964-.00189-3.3634.44349-4.8329 1.29126-1.4694.84776-2.6894 2.06794-3.537 3.53751-.8475 1.4696-1.29263 3.1367-1.2905 4.8331-.00532 3.6107.8982 7.1647 2.6274 10.3344 1.8581-3.4119 4.6017-6.2598 7.942-8.2439 3.3404-1.984 7.1538-3.0307 11.0389-3.03h.5414c3.2372.0977 6.4106.9251 9.2834 2.4204L24.4905 7.30435z"/>
    <path fill="url(#paint0_linear)" d="M24.4905 7.30435c-1.4676-.85104-3.1336-1.30013-4.8301-1.30202-1.6964-.00189-3.3634.44349-4.8329 1.29126-1.4694.84776-2.6894 2.06794-3.537 3.53751-.8475 1.4696-1.29263 3.1367-1.2905 4.8331-.00532 3.6107.8982 7.1647 2.6274 10.3344 1.8581-3.4119 4.6017-6.2598 7.942-8.2439 3.3404-1.984 7.1538-3.0307 11.0389-3.03h.5414c3.2372.0977 6.4106.9251 9.2834 2.4204L24.4905 7.30435z" opacity=".15"/>
    <path fill="#3C8CFF" d="M24.3312 44.8217l.2707-.1593-.2707.1593z" opacity=".6"/>
    <path fill="#00C8D2" d="M31.6083 37.2739c-5.7309 0-11.227-2.2766-15.2794-6.3289C12.2766 26.8927 10 21.3965 10 15.6656v20.5892c-.00041 1.7088.4493 3.3876 1.3037 4.8675.8545 1.4798 2.0837 2.7085 3.5639 3.5624 1.4802.8539 3.1592 1.3029 4.868 1.3018 1.7088-.0011 3.3872-.4523 4.8663-1.3081 3.0933-1.8067 5.6917-4.3504 7.5637-7.4045h-.5573z"/>
    <path fill="#A9FFFA" d="M31.6083 37.2739c-5.7309 0-11.227-2.2766-15.2794-6.3289C12.2766 26.8927 10 21.3965 10 15.6656v20.5892c-.00041 1.7088.4493 3.3876 1.3037 4.8675.8545 1.4798 2.0837 2.7085 3.5639 3.5624 1.4802.8539 3.1592 1.3029 4.868 1.3018 1.7088-.0011 3.3872-.4523 4.8663-1.3081 3.0933-1.8067 5.6917-4.3503 7.5637-7.4045h-.5573z"/>
    <path fill="#3C8CFF" d="M41.4332 17.1465c-2.8781-1.4732-6.0512-2.2787-9.2834-2.3567 2.0709 3.3929 3.1665 7.291 3.1665 11.2659 0 3.975-1.0956 7.8731-3.1665 11.266-1.8721 3.0541-4.4705 5.5978-7.5637 7.4044l16.8312-9.7133c1.568-.9047 2.8705-2.2059 3.7765-3.7731.9061-1.5672 1.384-3.3452 1.3856-5.1555.0016-1.8102-.4731-3.5891-1.3764-5.1579-.9033-1.5688-2.2034-2.8724-3.7698-3.7798z"/>
    <path fill="url(#paint1_linear)" d="M41.4332 17.1465c-2.8781-1.4732-6.0512-2.2787-9.2834-2.3567 2.0709 3.3929 3.1665 7.291 3.1665 11.2659 0 3.975-1.0956 7.8731-3.1665 11.266-1.8721 3.0541-4.4705 5.5978-7.5637 7.4044l16.8312-9.7133c1.568-.9047 2.8705-2.2059 3.7765-3.7731.9061-1.5672 1.384-3.3452 1.3856-5.1555.0016-1.8102-.4731-3.5891-1.3764-5.1579-.9033-1.5688-2.2034-2.8724-3.7698-3.7798z" opacity=".15"/>
    <path fill="#fff" d="M32.1497 14.7421h-.5414c-3.8835-.0023-7.6958 1.042-11.036 3.0231-3.3401 1.9812-6.0847 4.8258-7.9449 8.2348 1.8581 3.412 4.6018 6.2599 7.9421 8.2439s7.1537 3.0308 11.0388 3.03h.5414c2.0709-3.3929 3.1666-7.2909 3.1666-11.2659 0-3.975-1.0957-7.873-3.1666-11.2659z"/>
    <path fill="#325AB4" d="M31.5128 24.7899c.1851.108.3385.2626.4452.4484.1067.1858.1628.3963.1628.6105 0 .2142-.0561.4247-.1628.6105-.1067.1858-.2601.3404-.4452.4484l-3.9968 2.2771-3.8535 2.293c-.1854.1052-.395.1603-.6081.1597-.2132-.0005-.4225-.0565-.6074-.1626-.1849-.1061-.3389-.2586-.4469-.4424-.1079-.1838-.1661-.3925-.1688-.6057v-9.1083c.0132-.2076.079-.4085.1913-.5838.1123-.1752.2673-.3189.4505-.4177.1832-.0987.3885-.1492.5965-.1467.2081.0024.4122.0579.5929.161l3.8535 2.1974 3.9968 2.2612z"/>
  </g>
  <defs>
    <filter id="filter0_d" width="56.5924" height="60" x="0" y="0" color-interpolation-filters="sRGB" filterUnits="userSpaceOnUse">
      <feFlood flood-opacity="0" result="BackgroundImageFix"/>
      <feColorMatrix in="SourceAlpha" values="0 0 0 0 0 0 0 0 0 0 0 0 0 0 0 0 0 0 127 0"/>
      <feOffset dy="4"/>
      <feGaussianBlur stdDeviation="5"/>
      <feColorMatrix values="0 0 0 0 0 0 0 0 0 0 0 0 0 0 0 0 0 0 0.05 0"/>
      <feBlend in2="BackgroundImageFix" result="effect1_dropShadow"/>
      <feBlend in="SourceGraphic" in2="effect1_dropShadow" result="shape"/>
    </filter>
    <linearGradient id="paint0_linear" x1="24.4745" x2="25.4777" y1="22.9254" y2="17.2566" gradientUnits="userSpaceOnUse">
      <stop/>
      <stop offset="1" stop-opacity="0"/>
    </linearGradient>
    <linearGradient id="paint1_linear" x1="305.661" x2="371.864" y1="250.987" y2="398.835" gradientUnits="userSpaceOnUse">
      <stop/>
      <stop offset="1" stop-opacity="0"/>
    </linearGradient>
    <clipPath id="clip0">
      <path fill="#fff" d="M0 0h36.5924v40H0z" transform="translate(10 6)"/>
    </clipPath>
  </defs>
</svg>
